<mxfile host="app.diagrams.net" agent="Mozilla/5.0 (X11; Ubuntu; Linux x86_64; rv:129.0) Gecko/20100101 Firefox/129.0" version="24.7.17">
  <diagram name="Page-1" id="9f46799a-70d6-7492-0946-bef42562c5a5">
    <mxGraphModel dx="1580" dy="791" grid="0" gridSize="11" guides="1" tooltips="1" connect="1" arrows="1" fold="1" page="1" pageScale="1" pageWidth="3000" pageHeight="2000" background="none" math="0" shadow="0">
      <root>
        <mxCell id="0" />
        <mxCell id="1" parent="0" />
        <mxCell id="JBp3I3T4Ij93p-EHhP-D-1" value="JFrame" style="rounded=0;whiteSpace=wrap;html=1;" vertex="1" parent="1">
          <mxGeometry x="1103" y="10" width="120" height="70" as="geometry" />
        </mxCell>
        <mxCell id="JBp3I3T4Ij93p-EHhP-D-16" style="edgeStyle=orthogonalEdgeStyle;rounded=0;orthogonalLoop=1;jettySize=auto;html=1;exitX=0.5;exitY=0;exitDx=0;exitDy=0;entryX=0.5;entryY=1;entryDx=0;entryDy=0;" edge="1" parent="1" source="JBp3I3T4Ij93p-EHhP-D-4" target="JBp3I3T4Ij93p-EHhP-D-1">
          <mxGeometry relative="1" as="geometry" />
        </mxCell>
        <mxCell id="JBp3I3T4Ij93p-EHhP-D-4" value="Login" style="swimlane;html=1;fontStyle=1;align=center;verticalAlign=top;childLayout=stackLayout;horizontal=1;startSize=26;horizontalStack=0;resizeParent=1;resizeLast=0;collapsible=1;marginBottom=0;swimlaneFillColor=#ffffff;rounded=0;shadow=0;comic=0;labelBackgroundColor=none;strokeWidth=1;fillColor=none;fontFamily=Verdana;fontSize=12" vertex="1" parent="1">
          <mxGeometry x="80" y="198" width="210" height="202" as="geometry" />
        </mxCell>
        <mxCell id="JBp3I3T4Ij93p-EHhP-D-5" value="- contentPane: JPanel" style="text;html=1;strokeColor=none;fillColor=none;align=left;verticalAlign=top;spacingLeft=4;spacingRight=4;whiteSpace=wrap;overflow=hidden;rotatable=0;points=[[0,0.5],[1,0.5]];portConstraint=eastwest;" vertex="1" parent="JBp3I3T4Ij93p-EHhP-D-4">
          <mxGeometry y="26" width="210" height="26" as="geometry" />
        </mxCell>
        <mxCell id="JBp3I3T4Ij93p-EHhP-D-7" value="- textField: JTextField" style="text;html=1;strokeColor=none;fillColor=none;align=left;verticalAlign=top;spacingLeft=4;spacingRight=4;whiteSpace=wrap;overflow=hidden;rotatable=0;points=[[0,0.5],[1,0.5]];portConstraint=eastwest;" vertex="1" parent="JBp3I3T4Ij93p-EHhP-D-4">
          <mxGeometry y="52" width="210" height="26" as="geometry" />
        </mxCell>
        <mxCell id="JBp3I3T4Ij93p-EHhP-D-8" value="- passwordField: JPasswordField" style="text;html=1;strokeColor=none;fillColor=none;align=left;verticalAlign=top;spacingLeft=4;spacingRight=4;whiteSpace=wrap;overflow=hidden;rotatable=0;points=[[0,0.5],[1,0.5]];portConstraint=eastwest;" vertex="1" parent="JBp3I3T4Ij93p-EHhP-D-4">
          <mxGeometry y="78" width="210" height="42" as="geometry" />
        </mxCell>
        <mxCell id="JBp3I3T4Ij93p-EHhP-D-10" value="" style="line;html=1;strokeWidth=1;fillColor=none;align=left;verticalAlign=middle;spacingTop=-1;spacingLeft=3;spacingRight=3;rotatable=0;labelPosition=right;points=[];portConstraint=eastwest;" vertex="1" parent="JBp3I3T4Ij93p-EHhP-D-4">
          <mxGeometry y="120" width="210" height="10" as="geometry" />
        </mxCell>
        <mxCell id="JBp3I3T4Ij93p-EHhP-D-12" value="+ main(String): void" style="text;html=1;strokeColor=none;fillColor=none;align=left;verticalAlign=top;spacingLeft=4;spacingRight=4;whiteSpace=wrap;overflow=hidden;rotatable=0;points=[[0,0.5],[1,0.5]];portConstraint=eastwest;" vertex="1" parent="JBp3I3T4Ij93p-EHhP-D-4">
          <mxGeometry y="130" width="210" height="26" as="geometry" />
        </mxCell>
        <mxCell id="JBp3I3T4Ij93p-EHhP-D-14" value="+ Login()" style="text;html=1;strokeColor=none;fillColor=none;align=left;verticalAlign=top;spacingLeft=4;spacingRight=4;whiteSpace=wrap;overflow=hidden;rotatable=0;points=[[0,0.5],[1,0.5]];portConstraint=eastwest;" vertex="1" parent="JBp3I3T4Ij93p-EHhP-D-4">
          <mxGeometry y="156" width="210" height="26" as="geometry" />
        </mxCell>
        <mxCell id="JBp3I3T4Ij93p-EHhP-D-27" style="edgeStyle=orthogonalEdgeStyle;rounded=0;orthogonalLoop=1;jettySize=auto;html=1;exitX=0.5;exitY=0;exitDx=0;exitDy=0;entryX=0.5;entryY=1;entryDx=0;entryDy=0;" edge="1" parent="1" source="JBp3I3T4Ij93p-EHhP-D-17" target="JBp3I3T4Ij93p-EHhP-D-1">
          <mxGeometry relative="1" as="geometry" />
        </mxCell>
        <mxCell id="JBp3I3T4Ij93p-EHhP-D-17" value="Registration" style="swimlane;html=1;fontStyle=1;align=center;verticalAlign=top;childLayout=stackLayout;horizontal=1;startSize=26;horizontalStack=0;resizeParent=1;resizeLast=0;collapsible=1;marginBottom=0;swimlaneFillColor=#ffffff;rounded=0;shadow=0;comic=0;labelBackgroundColor=none;strokeWidth=1;fillColor=none;fontFamily=Verdana;fontSize=12" vertex="1" parent="1">
          <mxGeometry x="340" y="198" width="210" height="362" as="geometry" />
        </mxCell>
        <mxCell id="JBp3I3T4Ij93p-EHhP-D-18" value="- contentPane: JPanel" style="text;html=1;strokeColor=none;fillColor=none;align=left;verticalAlign=top;spacingLeft=4;spacingRight=4;whiteSpace=wrap;overflow=hidden;rotatable=0;points=[[0,0.5],[1,0.5]];portConstraint=eastwest;" vertex="1" parent="JBp3I3T4Ij93p-EHhP-D-17">
          <mxGeometry y="26" width="210" height="26" as="geometry" />
        </mxCell>
        <mxCell id="JBp3I3T4Ij93p-EHhP-D-19" value="- textField: JTextField" style="text;html=1;strokeColor=none;fillColor=none;align=left;verticalAlign=top;spacingLeft=4;spacingRight=4;whiteSpace=wrap;overflow=hidden;rotatable=0;points=[[0,0.5],[1,0.5]];portConstraint=eastwest;" vertex="1" parent="JBp3I3T4Ij93p-EHhP-D-17">
          <mxGeometry y="52" width="210" height="26" as="geometry" />
        </mxCell>
        <mxCell id="JBp3I3T4Ij93p-EHhP-D-20" value="&lt;div&gt;- textField_1: JTextField&lt;/div&gt;&lt;div&gt;&lt;br&gt;&lt;/div&gt;&lt;div&gt;- textField_2: JTextField&lt;/div&gt;&lt;div&gt;&lt;br&gt;&lt;/div&gt;&lt;div&gt;- textField_3: JTextField&lt;/div&gt;&lt;div&gt;&lt;br&gt;&lt;/div&gt;&lt;div&gt;- passwordField: JPasswordField&lt;/div&gt;&lt;div&gt;&lt;br&gt;&lt;/div&gt;&lt;div&gt;- passwordField_1: JPasswordField&lt;/div&gt;" style="text;html=1;strokeColor=none;fillColor=none;align=left;verticalAlign=top;spacingLeft=4;spacingRight=4;whiteSpace=wrap;overflow=hidden;rotatable=0;points=[[0,0.5],[1,0.5]];portConstraint=eastwest;" vertex="1" parent="JBp3I3T4Ij93p-EHhP-D-17">
          <mxGeometry y="78" width="210" height="132" as="geometry" />
        </mxCell>
        <mxCell id="JBp3I3T4Ij93p-EHhP-D-21" value="" style="line;html=1;strokeWidth=1;fillColor=none;align=left;verticalAlign=middle;spacingTop=-1;spacingLeft=3;spacingRight=3;rotatable=0;labelPosition=right;points=[];portConstraint=eastwest;" vertex="1" parent="JBp3I3T4Ij93p-EHhP-D-17">
          <mxGeometry y="210" width="210" height="30" as="geometry" />
        </mxCell>
        <mxCell id="JBp3I3T4Ij93p-EHhP-D-26" value="&lt;div&gt;+ main(String): void&lt;/div&gt;&lt;div&gt;&lt;br&gt;&lt;/div&gt;&lt;div&gt;+ reset(): void&lt;/div&gt;&lt;div&gt;&lt;br&gt;&lt;/div&gt;&lt;div&gt;+ studentID(): String&lt;/div&gt;&lt;div&gt;&lt;br&gt;&lt;/div&gt;&lt;div&gt;+ Registration()&lt;br&gt;&lt;/div&gt;" style="text;html=1;strokeColor=none;fillColor=none;align=left;verticalAlign=top;spacingLeft=4;spacingRight=4;whiteSpace=wrap;overflow=hidden;rotatable=0;points=[[0,0.5],[1,0.5]];portConstraint=eastwest;" vertex="1" parent="JBp3I3T4Ij93p-EHhP-D-17">
          <mxGeometry y="240" width="210" height="120" as="geometry" />
        </mxCell>
        <mxCell id="JBp3I3T4Ij93p-EHhP-D-35" style="edgeStyle=orthogonalEdgeStyle;rounded=0;orthogonalLoop=1;jettySize=auto;html=1;exitX=0.5;exitY=0;exitDx=0;exitDy=0;" edge="1" parent="1" source="JBp3I3T4Ij93p-EHhP-D-28" target="JBp3I3T4Ij93p-EHhP-D-1">
          <mxGeometry relative="1" as="geometry" />
        </mxCell>
        <mxCell id="JBp3I3T4Ij93p-EHhP-D-28" value="StudentPage" style="swimlane;html=1;fontStyle=1;align=center;verticalAlign=top;childLayout=stackLayout;horizontal=1;startSize=26;horizontalStack=0;resizeParent=1;resizeLast=0;collapsible=1;marginBottom=0;swimlaneFillColor=#ffffff;rounded=0;shadow=0;comic=0;labelBackgroundColor=none;strokeWidth=1;fillColor=none;fontFamily=Verdana;fontSize=12" vertex="1" parent="1">
          <mxGeometry x="590" y="199" width="210" height="151" as="geometry" />
        </mxCell>
        <mxCell id="JBp3I3T4Ij93p-EHhP-D-29" value="- contentPane: JPanel" style="text;html=1;strokeColor=none;fillColor=none;align=left;verticalAlign=top;spacingLeft=4;spacingRight=4;whiteSpace=wrap;overflow=hidden;rotatable=0;points=[[0,0.5],[1,0.5]];portConstraint=eastwest;" vertex="1" parent="JBp3I3T4Ij93p-EHhP-D-28">
          <mxGeometry y="26" width="210" height="26" as="geometry" />
        </mxCell>
        <mxCell id="JBp3I3T4Ij93p-EHhP-D-32" value="" style="line;html=1;strokeWidth=1;fillColor=none;align=left;verticalAlign=middle;spacingTop=-1;spacingLeft=3;spacingRight=3;rotatable=0;labelPosition=right;points=[];portConstraint=eastwest;" vertex="1" parent="JBp3I3T4Ij93p-EHhP-D-28">
          <mxGeometry y="52" width="210" height="30" as="geometry" />
        </mxCell>
        <mxCell id="JBp3I3T4Ij93p-EHhP-D-33" value="&lt;div&gt;+ main(String): void&lt;/div&gt;&lt;div&gt;&lt;br&gt;&lt;/div&gt;&lt;div&gt;+ StudentPage()&lt;br&gt;&lt;/div&gt;" style="text;html=1;strokeColor=none;fillColor=none;align=left;verticalAlign=top;spacingLeft=4;spacingRight=4;whiteSpace=wrap;overflow=hidden;rotatable=0;points=[[0,0.5],[1,0.5]];portConstraint=eastwest;" vertex="1" parent="JBp3I3T4Ij93p-EHhP-D-28">
          <mxGeometry y="82" width="210" height="68" as="geometry" />
        </mxCell>
        <mxCell id="JBp3I3T4Ij93p-EHhP-D-44" style="edgeStyle=orthogonalEdgeStyle;rounded=0;orthogonalLoop=1;jettySize=auto;html=1;exitX=0.5;exitY=0;exitDx=0;exitDy=0;entryX=0.5;entryY=1;entryDx=0;entryDy=0;" edge="1" parent="1" source="JBp3I3T4Ij93p-EHhP-D-36" target="JBp3I3T4Ij93p-EHhP-D-1">
          <mxGeometry relative="1" as="geometry" />
        </mxCell>
        <mxCell id="JBp3I3T4Ij93p-EHhP-D-36" value="ViewBooks" style="swimlane;html=1;fontStyle=1;align=center;verticalAlign=top;childLayout=stackLayout;horizontal=1;startSize=26;horizontalStack=0;resizeParent=1;resizeLast=0;collapsible=1;marginBottom=0;swimlaneFillColor=#ffffff;rounded=0;shadow=0;comic=0;labelBackgroundColor=none;strokeWidth=1;fillColor=none;fontFamily=Verdana;fontSize=12" vertex="1" parent="1">
          <mxGeometry x="869" y="200" width="210" height="250" as="geometry" />
        </mxCell>
        <mxCell id="JBp3I3T4Ij93p-EHhP-D-37" value="- contentPane: JPanel" style="text;html=1;strokeColor=none;fillColor=none;align=left;verticalAlign=top;spacingLeft=4;spacingRight=4;whiteSpace=wrap;overflow=hidden;rotatable=0;points=[[0,0.5],[1,0.5]];portConstraint=eastwest;" vertex="1" parent="JBp3I3T4Ij93p-EHhP-D-36">
          <mxGeometry y="26" width="210" height="26" as="geometry" />
        </mxCell>
        <mxCell id="JBp3I3T4Ij93p-EHhP-D-39" value="&lt;div&gt;- comboBox: JComboBox&lt;/div&gt;&lt;div&gt;&lt;br&gt;&lt;/div&gt;&lt;div&gt;- comboBox_1: JComboBox&lt;/div&gt;&lt;div&gt;&lt;br&gt;&lt;/div&gt;&lt;div&gt;- table: JTable&lt;br&gt;&lt;/div&gt;" style="text;html=1;strokeColor=none;fillColor=none;align=left;verticalAlign=top;spacingLeft=4;spacingRight=4;whiteSpace=wrap;overflow=hidden;rotatable=0;points=[[0,0.5],[1,0.5]];portConstraint=eastwest;" vertex="1" parent="JBp3I3T4Ij93p-EHhP-D-36">
          <mxGeometry y="52" width="210" height="98" as="geometry" />
        </mxCell>
        <mxCell id="JBp3I3T4Ij93p-EHhP-D-40" value="" style="line;html=1;strokeWidth=1;fillColor=none;align=left;verticalAlign=middle;spacingTop=-1;spacingLeft=3;spacingRight=3;rotatable=0;labelPosition=right;points=[];portConstraint=eastwest;" vertex="1" parent="JBp3I3T4Ij93p-EHhP-D-36">
          <mxGeometry y="150" width="210" height="30" as="geometry" />
        </mxCell>
        <mxCell id="JBp3I3T4Ij93p-EHhP-D-41" value="&lt;div&gt;+ main(String): void&lt;/div&gt;&lt;div&gt;&lt;br&gt;&lt;/div&gt;&lt;div&gt;+ ViewBooks()&lt;br&gt;&lt;/div&gt;" style="text;html=1;strokeColor=none;fillColor=none;align=left;verticalAlign=top;spacingLeft=4;spacingRight=4;whiteSpace=wrap;overflow=hidden;rotatable=0;points=[[0,0.5],[1,0.5]];portConstraint=eastwest;" vertex="1" parent="JBp3I3T4Ij93p-EHhP-D-36">
          <mxGeometry y="180" width="210" height="70" as="geometry" />
        </mxCell>
        <mxCell id="JBp3I3T4Ij93p-EHhP-D-51" style="edgeStyle=orthogonalEdgeStyle;rounded=0;orthogonalLoop=1;jettySize=auto;html=1;exitX=0.5;exitY=0;exitDx=0;exitDy=0;entryX=0.5;entryY=1;entryDx=0;entryDy=0;" edge="1" parent="1" source="JBp3I3T4Ij93p-EHhP-D-45" target="JBp3I3T4Ij93p-EHhP-D-1">
          <mxGeometry relative="1" as="geometry" />
        </mxCell>
        <mxCell id="JBp3I3T4Ij93p-EHhP-D-45" value="ViewNotice" style="swimlane;html=1;fontStyle=1;align=center;verticalAlign=top;childLayout=stackLayout;horizontal=1;startSize=26;horizontalStack=0;resizeParent=1;resizeLast=0;collapsible=1;marginBottom=0;swimlaneFillColor=#ffffff;rounded=0;shadow=0;comic=0;labelBackgroundColor=none;strokeWidth=1;fillColor=none;fontFamily=Verdana;fontSize=12" vertex="1" parent="1">
          <mxGeometry x="1154" y="199" width="210" height="153" as="geometry" />
        </mxCell>
        <mxCell id="JBp3I3T4Ij93p-EHhP-D-46" value="- contentPane: JPanel" style="text;html=1;strokeColor=none;fillColor=none;align=left;verticalAlign=top;spacingLeft=4;spacingRight=4;whiteSpace=wrap;overflow=hidden;rotatable=0;points=[[0,0.5],[1,0.5]];portConstraint=eastwest;" vertex="1" parent="JBp3I3T4Ij93p-EHhP-D-45">
          <mxGeometry y="26" width="210" height="26" as="geometry" />
        </mxCell>
        <mxCell id="JBp3I3T4Ij93p-EHhP-D-48" value="" style="line;html=1;strokeWidth=1;fillColor=none;align=left;verticalAlign=middle;spacingTop=-1;spacingLeft=3;spacingRight=3;rotatable=0;labelPosition=right;points=[];portConstraint=eastwest;" vertex="1" parent="JBp3I3T4Ij93p-EHhP-D-45">
          <mxGeometry y="52" width="210" height="30" as="geometry" />
        </mxCell>
        <mxCell id="JBp3I3T4Ij93p-EHhP-D-49" value="&lt;div&gt;+ main(String): void&lt;/div&gt;&lt;div&gt;&lt;br&gt;&lt;/div&gt;&lt;div&gt;+ viewNotice()&lt;br&gt;&lt;/div&gt;" style="text;html=1;strokeColor=none;fillColor=none;align=left;verticalAlign=top;spacingLeft=4;spacingRight=4;whiteSpace=wrap;overflow=hidden;rotatable=0;points=[[0,0.5],[1,0.5]];portConstraint=eastwest;" vertex="1" parent="JBp3I3T4Ij93p-EHhP-D-45">
          <mxGeometry y="82" width="210" height="70" as="geometry" />
        </mxCell>
        <mxCell id="JBp3I3T4Ij93p-EHhP-D-67" style="edgeStyle=orthogonalEdgeStyle;rounded=0;orthogonalLoop=1;jettySize=auto;html=1;exitX=0.5;exitY=0;exitDx=0;exitDy=0;entryX=0.5;entryY=1;entryDx=0;entryDy=0;" edge="1" parent="1" source="JBp3I3T4Ij93p-EHhP-D-52" target="JBp3I3T4Ij93p-EHhP-D-1">
          <mxGeometry relative="1" as="geometry" />
        </mxCell>
        <mxCell id="JBp3I3T4Ij93p-EHhP-D-52" value="ViewStatic" style="swimlane;html=1;fontStyle=1;align=center;verticalAlign=top;childLayout=stackLayout;horizontal=1;startSize=26;horizontalStack=0;resizeParent=1;resizeLast=0;collapsible=1;marginBottom=0;swimlaneFillColor=#ffffff;rounded=0;shadow=0;comic=0;labelBackgroundColor=none;strokeWidth=1;fillColor=none;fontFamily=Verdana;fontSize=12" vertex="1" parent="1">
          <mxGeometry x="1436" y="197" width="210" height="501" as="geometry" />
        </mxCell>
        <mxCell id="JBp3I3T4Ij93p-EHhP-D-53" value="&lt;div&gt;- contentPane: JPanel&lt;/div&gt;&lt;div&gt;&lt;br&gt;&lt;/div&gt;&lt;div&gt;- table: JTable&lt;br&gt;&lt;/div&gt;&lt;div&gt;&lt;br&gt;&lt;/div&gt;&lt;div&gt;- table_return: JTable&lt;br&gt;&lt;/div&gt;&lt;div&gt;&lt;br&gt;&lt;/div&gt;&lt;div&gt;- table_issue: JTable&lt;br&gt;&lt;/div&gt;&lt;div&gt;&lt;br&gt;&lt;/div&gt;&lt;div&gt;- table_bookId: JTable&lt;br&gt;&lt;div&gt;&lt;br&gt;&lt;/div&gt;&lt;div&gt;- table_bookId: JTable&lt;/div&gt;&lt;div&gt;&lt;br&gt;&lt;/div&gt;&lt;div&gt;- table_1: Jtable&lt;br&gt;&lt;/div&gt;&lt;/div&gt;&lt;div&gt;&lt;br&gt;&lt;/div&gt;&lt;div&gt;- return_values; Vector&amp;lt;Vector&amp;gt;&lt;/div&gt;&lt;div&gt;&lt;br&gt;&lt;/div&gt;&lt;div&gt;- return_cols: Vector&lt;/div&gt;&lt;div&gt;&lt;br&gt;&lt;/div&gt;&lt;div&gt;- values: Vector&amp;lt;Vector&amp;gt;&lt;/div&gt;&lt;div&gt;&lt;br&gt;&lt;/div&gt;&lt;div&gt;- cols: Vector&lt;/div&gt;&lt;div&gt;&lt;br&gt;&lt;/div&gt;&lt;div&gt;- issue_values: Vector&amp;lt;Vector&amp;gt;&lt;/div&gt;&lt;div&gt;&lt;br&gt;&lt;/div&gt;&lt;div&gt;- issue_cols: Vector&lt;br&gt;&lt;/div&gt;" style="text;html=1;strokeColor=none;fillColor=none;align=left;verticalAlign=top;spacingLeft=4;spacingRight=4;whiteSpace=wrap;overflow=hidden;rotatable=0;points=[[0,0.5],[1,0.5]];portConstraint=eastwest;" vertex="1" parent="JBp3I3T4Ij93p-EHhP-D-52">
          <mxGeometry y="26" width="210" height="375" as="geometry" />
        </mxCell>
        <mxCell id="JBp3I3T4Ij93p-EHhP-D-54" value="" style="line;html=1;strokeWidth=1;fillColor=none;align=left;verticalAlign=middle;spacingTop=-1;spacingLeft=3;spacingRight=3;rotatable=0;labelPosition=right;points=[];portConstraint=eastwest;" vertex="1" parent="JBp3I3T4Ij93p-EHhP-D-52">
          <mxGeometry y="401" width="210" height="30" as="geometry" />
        </mxCell>
        <mxCell id="JBp3I3T4Ij93p-EHhP-D-55" value="&lt;div&gt;+ main(String): void&lt;/div&gt;&lt;div&gt;&lt;br&gt;&lt;/div&gt;&lt;div&gt;+ ViewStatic()&lt;br&gt;&lt;/div&gt;" style="text;html=1;strokeColor=none;fillColor=none;align=left;verticalAlign=top;spacingLeft=4;spacingRight=4;whiteSpace=wrap;overflow=hidden;rotatable=0;points=[[0,0.5],[1,0.5]];portConstraint=eastwest;" vertex="1" parent="JBp3I3T4Ij93p-EHhP-D-52">
          <mxGeometry y="431" width="210" height="70" as="geometry" />
        </mxCell>
        <mxCell id="JBp3I3T4Ij93p-EHhP-D-61" style="edgeStyle=orthogonalEdgeStyle;rounded=0;orthogonalLoop=1;jettySize=auto;html=1;exitX=0.5;exitY=0;exitDx=0;exitDy=0;entryX=0.5;entryY=1;entryDx=0;entryDy=0;" edge="1" parent="1" source="JBp3I3T4Ij93p-EHhP-D-57" target="JBp3I3T4Ij93p-EHhP-D-1">
          <mxGeometry relative="1" as="geometry" />
        </mxCell>
        <mxCell id="JBp3I3T4Ij93p-EHhP-D-57" value="ViewUser" style="swimlane;html=1;fontStyle=1;align=center;verticalAlign=top;childLayout=stackLayout;horizontal=1;startSize=26;horizontalStack=0;resizeParent=1;resizeLast=0;collapsible=1;marginBottom=0;swimlaneFillColor=#ffffff;rounded=0;shadow=0;comic=0;labelBackgroundColor=none;strokeWidth=1;fillColor=none;fontFamily=Verdana;fontSize=12" vertex="1" parent="1">
          <mxGeometry x="1717" y="201" width="210" height="183" as="geometry" />
        </mxCell>
        <mxCell id="JBp3I3T4Ij93p-EHhP-D-58" value="&lt;div&gt;- contentPane: JPanel&lt;/div&gt;&lt;div&gt;&lt;br&gt;&lt;/div&gt;&lt;div&gt;- table: JTable&lt;br&gt;&lt;/div&gt;" style="text;html=1;strokeColor=none;fillColor=none;align=left;verticalAlign=top;spacingLeft=4;spacingRight=4;whiteSpace=wrap;overflow=hidden;rotatable=0;points=[[0,0.5],[1,0.5]];portConstraint=eastwest;" vertex="1" parent="JBp3I3T4Ij93p-EHhP-D-57">
          <mxGeometry y="26" width="210" height="57" as="geometry" />
        </mxCell>
        <mxCell id="JBp3I3T4Ij93p-EHhP-D-59" value="" style="line;html=1;strokeWidth=1;fillColor=none;align=left;verticalAlign=middle;spacingTop=-1;spacingLeft=3;spacingRight=3;rotatable=0;labelPosition=right;points=[];portConstraint=eastwest;" vertex="1" parent="JBp3I3T4Ij93p-EHhP-D-57">
          <mxGeometry y="83" width="210" height="30" as="geometry" />
        </mxCell>
        <mxCell id="JBp3I3T4Ij93p-EHhP-D-60" value="&lt;div&gt;+ main(String): void&lt;/div&gt;&lt;div&gt;&lt;br&gt;&lt;/div&gt;&lt;div&gt;+ ViewUsers()&lt;br&gt;&lt;/div&gt;" style="text;html=1;strokeColor=none;fillColor=none;align=left;verticalAlign=top;spacingLeft=4;spacingRight=4;whiteSpace=wrap;overflow=hidden;rotatable=0;points=[[0,0.5],[1,0.5]];portConstraint=eastwest;" vertex="1" parent="JBp3I3T4Ij93p-EHhP-D-57">
          <mxGeometry y="113" width="210" height="70" as="geometry" />
        </mxCell>
        <mxCell id="JBp3I3T4Ij93p-EHhP-D-66" style="edgeStyle=orthogonalEdgeStyle;rounded=0;orthogonalLoop=1;jettySize=auto;html=1;exitX=0.5;exitY=0;exitDx=0;exitDy=0;entryX=0.5;entryY=1;entryDx=0;entryDy=0;" edge="1" parent="1" source="JBp3I3T4Ij93p-EHhP-D-62" target="JBp3I3T4Ij93p-EHhP-D-1">
          <mxGeometry relative="1" as="geometry" />
        </mxCell>
        <mxCell id="JBp3I3T4Ij93p-EHhP-D-62" value="StudentStatic" style="swimlane;html=1;fontStyle=1;align=center;verticalAlign=top;childLayout=stackLayout;horizontal=1;startSize=26;horizontalStack=0;resizeParent=1;resizeLast=0;collapsible=1;marginBottom=0;swimlaneFillColor=#ffffff;rounded=0;shadow=0;comic=0;labelBackgroundColor=none;strokeWidth=1;fillColor=none;fontFamily=Verdana;fontSize=12" vertex="1" parent="1">
          <mxGeometry x="1982" y="199" width="210" height="312" as="geometry" />
        </mxCell>
        <mxCell id="JBp3I3T4Ij93p-EHhP-D-63" value="&lt;div&gt;- contentPane: JPanel&lt;/div&gt;&lt;div&gt;&lt;br&gt;&lt;/div&gt;&lt;div&gt;- values: Vector&amp;lt;Vector&amp;gt;&lt;/div&gt;&lt;div&gt;&lt;br&gt;&lt;/div&gt;&lt;div&gt;- cols: Vector&lt;/div&gt;&lt;div&gt;&lt;br&gt;&lt;/div&gt;&lt;div&gt;- table: JTable&lt;/div&gt;&lt;div&gt;&lt;br&gt;&lt;/div&gt;&lt;div&gt;- table_all: JTable&lt;/div&gt;&lt;div&gt;&lt;br&gt;&lt;/div&gt;&lt;div&gt;- textField: JTextField&lt;br&gt;&lt;/div&gt;" style="text;html=1;strokeColor=none;fillColor=none;align=left;verticalAlign=top;spacingLeft=4;spacingRight=4;whiteSpace=wrap;overflow=hidden;rotatable=0;points=[[0,0.5],[1,0.5]];portConstraint=eastwest;" vertex="1" parent="JBp3I3T4Ij93p-EHhP-D-62">
          <mxGeometry y="26" width="210" height="181" as="geometry" />
        </mxCell>
        <mxCell id="JBp3I3T4Ij93p-EHhP-D-64" value="" style="line;html=1;strokeWidth=1;fillColor=none;align=left;verticalAlign=middle;spacingTop=-1;spacingLeft=3;spacingRight=3;rotatable=0;labelPosition=right;points=[];portConstraint=eastwest;" vertex="1" parent="JBp3I3T4Ij93p-EHhP-D-62">
          <mxGeometry y="207" width="210" height="30" as="geometry" />
        </mxCell>
        <mxCell id="JBp3I3T4Ij93p-EHhP-D-65" value="&lt;div&gt;+ main(String): void&lt;/div&gt;&lt;div&gt;&lt;br&gt;&lt;/div&gt;&lt;div&gt;+ StudentStatic()&lt;br&gt;&lt;/div&gt;" style="text;html=1;strokeColor=none;fillColor=none;align=left;verticalAlign=top;spacingLeft=4;spacingRight=4;whiteSpace=wrap;overflow=hidden;rotatable=0;points=[[0,0.5],[1,0.5]];portConstraint=eastwest;" vertex="1" parent="JBp3I3T4Ij93p-EHhP-D-62">
          <mxGeometry y="237" width="210" height="70" as="geometry" />
        </mxCell>
        <mxCell id="JBp3I3T4Ij93p-EHhP-D-68" value="StudentStatic" style="swimlane;html=1;fontStyle=1;align=center;verticalAlign=top;childLayout=stackLayout;horizontal=1;startSize=26;horizontalStack=0;resizeParent=1;resizeLast=0;collapsible=1;marginBottom=0;swimlaneFillColor=#ffffff;rounded=0;shadow=0;comic=0;labelBackgroundColor=none;strokeWidth=1;fillColor=none;fontFamily=Verdana;fontSize=12" vertex="1" parent="1">
          <mxGeometry x="2258" y="195" width="210" height="312" as="geometry" />
        </mxCell>
        <mxCell id="JBp3I3T4Ij93p-EHhP-D-69" value="&lt;div&gt;- contentPane: JPanel&lt;/div&gt;&lt;div&gt;&lt;br&gt;&lt;/div&gt;&lt;div&gt;- values: Vector&amp;lt;Vector&amp;gt;&lt;/div&gt;&lt;div&gt;&lt;br&gt;&lt;/div&gt;&lt;div&gt;- cols: Vector&lt;/div&gt;&lt;div&gt;&lt;br&gt;&lt;/div&gt;&lt;div&gt;- table: JTable&lt;/div&gt;&lt;div&gt;&lt;br&gt;&lt;/div&gt;&lt;div&gt;- table_all: JTable&lt;/div&gt;&lt;div&gt;&lt;br&gt;&lt;/div&gt;&lt;div&gt;- textField: JTextField&lt;br&gt;&lt;/div&gt;" style="text;html=1;strokeColor=none;fillColor=none;align=left;verticalAlign=top;spacingLeft=4;spacingRight=4;whiteSpace=wrap;overflow=hidden;rotatable=0;points=[[0,0.5],[1,0.5]];portConstraint=eastwest;" vertex="1" parent="JBp3I3T4Ij93p-EHhP-D-68">
          <mxGeometry y="26" width="210" height="181" as="geometry" />
        </mxCell>
        <mxCell id="JBp3I3T4Ij93p-EHhP-D-70" value="" style="line;html=1;strokeWidth=1;fillColor=none;align=left;verticalAlign=middle;spacingTop=-1;spacingLeft=3;spacingRight=3;rotatable=0;labelPosition=right;points=[];portConstraint=eastwest;" vertex="1" parent="JBp3I3T4Ij93p-EHhP-D-68">
          <mxGeometry y="207" width="210" height="30" as="geometry" />
        </mxCell>
        <mxCell id="JBp3I3T4Ij93p-EHhP-D-71" value="&lt;div&gt;+ main(String): void&lt;/div&gt;&lt;div&gt;&lt;br&gt;&lt;/div&gt;&lt;div&gt;+ StudentStatic()&lt;br&gt;&lt;/div&gt;" style="text;html=1;strokeColor=none;fillColor=none;align=left;verticalAlign=top;spacingLeft=4;spacingRight=4;whiteSpace=wrap;overflow=hidden;rotatable=0;points=[[0,0.5],[1,0.5]];portConstraint=eastwest;" vertex="1" parent="JBp3I3T4Ij93p-EHhP-D-68">
          <mxGeometry y="237" width="210" height="70" as="geometry" />
        </mxCell>
      </root>
    </mxGraphModel>
  </diagram>
</mxfile>
